<?xml version="1.0" standalone="no"?>
<!DOCTYPE svg PUBLIC "-//W3C//DTD SVG 20010904//EN"
 "http://www.w3.org/TR/2001/REC-SVG-20010904/DTD/svg10.dtd">
<svg version="1.0" xmlns="http://www.w3.org/2000/svg"
 width="236.000000pt" height="236.000000pt" viewBox="0 0 236.000000 236.000000"
 preserveAspectRatio="xMidYMid meet">
<metadata>
Created by potrace 1.14, written by Peter Selinger 2001-2017
</metadata>
<g transform="translate(0.000000,236.000000) scale(0.100000,-0.100000)"
fill="#000000" stroke="none">
<path d="M778 2245 c-3 -4 -46 -8 -94 -10 -49 -2 -89 -4 -89 -5 0 -1 -9 -3
-20 -5 -84 -13 -122 -19 -137 -18 -10 0 -18 -2 -18 -6 0 -3 -12 -7 -27 -8 -42
-2 -136 -13 -151 -18 -6 -2 -12 -8 -12 -12 0 -17 57 -29 145 -32 50 -2 97 -7
105 -12 8 -4 13 -9 10 -9 -3 -1 -12 -3 -20 -5 -45 -10 -88 -16 -113 -17 -15
-1 -33 -8 -40 -16 -8 -11 -8 -14 0 -9 6 4 13 2 15 -4 2 -6 38 -11 83 -13 l80
-3 5 -112 c3 -62 2 -118 -2 -124 -4 -6 -4 -15 -1 -20 8 -13 6 -899 -1 -1017
-11 -151 -12 -166 -20 -178 -4 -7 -3 -12 3 -12 6 0 7 -11 2 -27 -4 -16 -7 -72
-6 -125 0 -53 -4 -103 -10 -110 -8 -11 -50 -34 -50 -28 0 1 -12 -3 -26 -9 -15
-5 -30 -7 -33 -3 -4 3 -17 7 -29 9 -22 3 -117 99 -117 119 0 6 -11 20 -25 30
-14 10 -37 38 -52 61 -36 57 -76 56 -63 -2 1 -5 4 -21 7 -35 11 -60 113 -210
143 -210 6 0 8 -5 5 -10 -3 -6 1 -10 9 -10 9 0 16 -4 16 -9 0 -24 95 -96 155
-118 17 -6 39 -15 50 -19 27 -10 38 -12 117 -19 102 -10 147 15 211 117 72
116 82 160 86 373 9 470 3 918 -13 943 -3 6 -2 13 4 17 6 4 7 11 4 17 -7 10
-14 102 -16 188 0 25 -5 50 -10 57 -6 7 -5 14 2 18 6 3 7 11 4 17 -6 9 -8 29
-14 158 -4 91 -7 87 73 112 39 12 80 21 89 20 16 -3 47 36 31 40 -8 1 -112 6
-175 7 -65 2 -41 26 37 38 16 2 38 9 49 15 19 10 19 11 1 25 -11 7 -25 11 -32
9 -7 -3 -13 -1 -13 4 0 6 -5 10 -11 10 -5 0 -8 -4 -5 -8 6 -10 -77 -10 -85 1
-3 4 -8 5 -11 2z"/>
<path d="M1168 2213 c-36 -18 -65 -62 -61 -93 2 -14 5 -212 7 -441 1 -228 6
-421 10 -427 3 -6 2 -13 -3 -17 -7 -4 -7 -15 -1 -31 7 -18 7 -23 -2 -18 -7 5
-8 3 -3 -5 10 -16 12 -241 3 -247 -4 -3 -3 -15 2 -28 5 -15 5 -27 -3 -35 -6
-6 -7 -11 -1 -11 10 0 12 -126 1 -136 -3 -4 -2 -14 3 -24 5 -10 7 -20 4 -23
-4 -3 -8 -42 -10 -87 -2 -45 -6 -113 -9 -151 -7 -90 4 -112 51 -105 33 6 34 5
34 -30 0 -19 7 -42 15 -51 14 -13 20 -13 48 -2 17 7 60 12 97 11 77 -2 105 15
125 78 26 84 38 132 41 169 2 25 4 46 5 46 8 0 25 221 34 445 11 245 13 270
24 284 8 9 27 12 64 9 129 -10 187 -10 187 0 0 7 4 7 11 0 6 -6 13 -42 15 -80
7 -170 7 -229 0 -241 -4 -7 -4 -12 1 -12 4 0 9 -33 11 -73 1 -39 4 -81 6 -92
3 -11 5 -31 5 -44 1 -20 5 -23 34 -19 40 4 51 -6 56 -52 4 -47 7 -50 40 -40
16 4 32 6 35 2 3 -3 6 0 6 7 0 7 5 9 10 6 6 -3 13 1 16 9 3 9 10 14 14 11 4
-3 13 2 20 10 7 8 16 12 21 9 5 -3 9 -1 9 5 0 6 6 8 14 5 8 -3 23 3 34 14 11
11 23 18 25 15 5 -4 18 41 23 82 1 11 3 20 4 20 2 0 7 27 15 81 3 22 8 52 10
65 2 13 7 58 10 99 3 41 8 91 9 110 23 234 23 484 1 610 -33 190 -57 250 -99
250 -9 0 -16 5 -16 10 0 18 -45 80 -57 80 -7 0 -13 4 -13 8 0 5 -24 8 -52 8
-100 -3 -160 -59 -164 -151 -1 -22 -5 -112 -9 -200 -10 -242 -9 -237 -39 -267
-15 -15 -42 -35 -61 -44 -37 -17 -173 -43 -192 -37 -8 3 -12 31 -13 81 0 43
-3 91 -5 107 -5 30 -12 97 -20 190 -2 28 -6 61 -9 75 -4 24 -17 121 -18 148
-1 6 -5 12 -10 12 -5 0 -7 4 -4 9 3 4 -3 16 -14 26 -11 10 -20 15 -20 12 0 -4
-9 1 -20 10 -11 10 -20 24 -20 32 0 20 -50 63 -66 57 -7 -3 -16 -2 -18 3 -9
13 -149 9 -178 -6z"/>
</g>
</svg>
